<?xml version="1.0" encoding="utf-8"?>
<!-- Generator: Adobe Illustrator 21.1.0, SVG Export Plug-In . SVG Version: 6.00 Build 0)  -->
<svg version="1.1" id="Layer_1" xmlns="http://www.w3.org/2000/svg" xmlns:xlink="http://www.w3.org/1999/xlink" x="0px" y="0px"
	 viewBox="0 0 919.5 851.8" enable-background="new 0 0 919.5 851.8" xml:space="preserve">
<polygon fill="#F89621" points="459.8,0 119.3,631.4 296.7,631.4 446.1,354.1 446.5,354.6 548.5,164.1 "/>
<g>
	<defs>
		<polygon id="SVGID_1_" points="459.8,0 119.2,631.4 296.7,631.4 446.1,354.1 446.5,354.6 548.5,164.1 		"/>
	</defs>
	<clipPath id="SVGID_2_">
		<use xlink:href="#SVGID_1_"  overflow="visible"/>
	</clipPath>
	<path clip-path="url(#SVGID_2_)" fill="#EA8C1C" d="M-299.3-1766.7h263.9c11.3,19.6-3.9,30.7-15.1,41.2
		c-31.2,29.3-64.5,56.2-93.5,87.8c-7.7,8.4-18,14.8-20.9,27c5,10,14,6.9,21.4,6c181.1-23.8,362.1-48.3,543.2-71.2
		c37-4.7,74.6-19.4,112.5-2.9c15.4,21.1,1,34-13.4,46.3c-48.4,41.2-98,81-148.3,119.9c-28.3,22-55.8,45-83.5,67.7
		c-22.3,18.2-22,28.6,0.7,46.6c47.2,37.3,98.3,69.2,147,104.5c27.1,19.6,52.1,41.6,78.5,62c3.4,4,5.1,8.6,5,13.8
		c-53.7,76.4-113.5,148.4-167.7,224.5c-15.2,21.3-36.6,38.6-43.8,65.3c-0.9,3.3-2.3,6.4-4.2,9.3c-3.4,4.1-7.7,6.7-12.7,8
		c-36.5,15.5-64.2,44.1-96.3,66C90.5-788.2,8.2-730.4-73.7-672.1c-34.4,24.5-36.2,33.2-8.6,65.7c74.7,88.2,147.5,178,222.5,265.9
		c12.9,15.1,22.7,32,32.7,48.9c5.4,9.2,6.3,17.2-2.5,24.7c-17.9,9.7-36,5.8-53.7,0.1c-103.4-32.9-208.1-61.6-312.2-92.1
		c-14.5-4.2-28.1-10.4-40.6-19c-2.6-2.4-4.4-5.3-5.2-8.7c-2.6-65.6,35.4-119.7,52-179.8c2.1-7.7,6.5-14.8,9.1-22.4
		c16.9-49.7,15-56.1-28.8-85.4c-54.6-36.5-109-73.3-165-109.4c-8.2,10.8-1.3,18.6,1.8,26.2c41.4,100.2,82.7,200.4,122.6,301.2
		c8.7,22,15.9,44.2,6,67.9c-11.3,11.9-23.2,5.7-35.2,1.3c-33.7-12.3-65.2-29.7-98.8-42.3c-10.5-3.9-21.7-13.2-32.4-4.3
		c-10.5,8.8-4.3,21.7-1.9,32.7c26.5,123.2,56.3,245.7,83.6,368.7c6,27.1,13.6,53.9,14.9,81.7c0.7,14.5,6.4,24.2,20.4,28.4
		c19.2,6.4,30-7.5,42.3-17.5c120.4-98.8,241.3-197,363.1-293.9c15.1-12,33-36,53.1-19.3c17.1,14.2,3.5,39.4-3.4,57.6
		C132.6-117.6,96-42.9,62.8,33.2c-12,27.5-23.6,55.2-36.9,82.1C20,127.1,14,137.7,1,142.6c-78.6,6.9-157.2,4.5-235.7,1.3
		c-19.5-0.8-37.3-1.7-55.1,6.1c-16.6-1-26.9,9.2-38.1,19.9c-72.8,69.4-136.6,147.3-208.9,217.1c-16.6,16-33,32.3-51.5,46.2
		c-3.3,1.1-6.6,1.4-10,1c-40.5-17.8-66.6-52.7-95.5-83.4C-792.4,245.8-891.1,141.1-992.5,39c-16.3-16.4-31.5-33.7-24.1-60
		c16.9-14.9,35.5-5.8,52.8-2.5c133.9,25.7,267,55.1,400.4,83.6c69.7,14.9,140,27.3,204.6,44.6c-33.7-21.3-63.2-54.6-95-84.3
		c-101.3-94.6-204.4-187.3-305.7-282c-41.3-38.6-82.8-76.8-122.8-116.9c-53.4-53.5-93.5-117.3-142.1-174.4
		c-21.7-25.5-42.8-51.7-61.7-79.3c-14.4-21-32.1-35.9-57.2-41.3c-5-2.8-10.1-5.5-14.8-9c-8.3-5.5-15.7-7.6-27.2-7.3
		c-170.6,5-341.3,2.2-511.9,2.3c-14.8,0-30.1,0.7-43.5-8c-15.4-19.4-2.3-29.7,13.4-37c21-9.8,44.1-13.7,65.9-21.2
		c161.8-55.5,325.2-106.3,487.5-160.4c23.1-7.7,46.9-11.9,70.4-17.6c33.6-8.1,51.8,7.5,46.5,41.8c-5.5,35.4-16.8,69.6-24.7,104.6
		c-10.4,46.3-2.7,54.3,44.3,46.1c149.2-25.9,297.5-56.1,446.3-83.9c34.4-6.4,68.7-14.4,99.6-9.5c-98.9-2.5-199.8-25.4-301.9-38.2
		c-74.5-9.4-148.6-21.3-222.9-32.6c-20-3-42.5-3.9-52.7-27.1c-6.7-15.8,0.2-28.5,9.1-40.8c18.7-4.1,28.8-18.5,41.3-31.7
		c69.6-73.8,142.2-144.6,214.4-215.8c8.5-8.3,18.3-13.8,30.5-14.6c3.5,0.4,6.7,1.5,9.7,3.2c87.4,80.9,160.8,174.8,243.2,260.3
		c34.6,35.9,59.1,82.7,110.6,102.1c21,7.9,39.9,9.1,60.5,6.2c180.8-24.7,361.3-52.1,542.2-75.9c17.5-2.3,34.3-6,44.6-22.5
		c7.4-9.1,5.7-18.9,4.2-29.6c-17.2-124.4-30.7-249.3-43.9-374.2c-3.4-32.6-21.1-49.1-50.1-58.4c-100-32-198-69.7-298.1-101.2
		c-24.7-7.8-45.4-28.2-73.9-24c-7.9-1.7-13.1-7.2-18.4-12.6c-2.1-3.1-3.8-6.5-5.2-10c-22.3-49.9-42-100.9-58.1-153.2
		C-311.1-1738.9-315.2-1754.4-299.3-1766.7"/>
	<path clip-path="url(#SVGID_2_)" fill="#EA8C1C" d="M964.5,2399.7H770.1c-21.1-9.4-33.4-26.6-43-47c-13.1-27.8-26.9-55.4-42.1-83.9
		c-30.2,42.9-26.8,101.5-74.6,130.9H409c-8.7-17,2.4-25.3,14.7-33c63.2-40,122.5-86.2,190.1-119.1c14.2-6.9,26.3-16.1,35.2-29.3
		c1.5-3,3.3-5.9,5.2-8.6c3.3-3.9,8.1-5.8,11.9-9.2c2.4-2.3,4.8-4.7,7.2-7.1c14.4-11.9,15.8-30.3,22.9-45.7
		c67.2-146,141.5-288.6,210.2-433.8c1-2.1,2-4.2,3.2-6.2c9.2-15.5,15-38.4,38.4-33c23.9,5.5,19,29.2,19.1,46.7
		c0.6,105.9,1.6,211.9-0.4,312.1c40.2-91.8,86.3-187.4,129.9-284c27.1-60.1,54.8-119.8,82.8-179.5c5-10.7,10.7-21.2-2.2-30.7
		c-6.6-6.6-14.7-5.2-22.8-5.1c-145.4,1.8-290.9,0.1-436.3,1.1c-34.4,0.2-68.9-11.7-103.3,0c-8.7-0.7-15.7-4.5-20.8-11.7
		c-8.1-27.2,12.2-34.5,30.6-41c46.9-16.5,94.7-30.1,141.8-45.9c138.1-46.3,276.7-91.1,415.3-135.9c12.8-4.1,25.6-8.2,33.8-9.6
		c-66.2-10-135.3-29.4-205.2-44.6c-142.3-30.9-284.4-63.1-426.6-94.5c-5.7-1.2-11.3-2.6-16.8-4.3c-47.7-14.5-53-35.9-17.4-69.4
		c85-80,172.5-157.1,261.2-233c38.9-33.3,52.3-32.9,87.8,3.7c78.8,81.3,154.7,165.3,231,248.9c42.4,46.5,89.5,88.9,124.4,142
		c5.8,8.8,18.5,8.7,26.7,15.2c16.8,26.9,10.8,55,4,82.9c-15.1,61.2-30.8,122.2-38.7,185c19.7,192.7,39.1,385.4,58.8,578.1
		c7,67.9,21.2,135.9,8.3,204.8c-12.4,22.1-28.4,13.1-44.2,4.9c-66.4-34.7-131.1-72.5-196-109.8c-22-12.7-44.6-24.1-66.7-36.5
		c-27.3-15.3-40.9-8.3-37.5,22.8c6.2,56.3,3.2,112.8,8.7,169C979.1,2373.1,979.5,2388.3,964.5,2399.7"/>
	<path clip-path="url(#SVGID_2_)" fill="#F4931D" d="M6.2,129C27.2,60.3,61-3,89.4-68.6c24.8-57.1,49.6-114.2,78.1-179.7
		c-44.8,22.5-74.4,50.8-105.6,76.1C-52.3-80.2-165.5,13-279.2,105.5c-7.9,6.4-16.3,20.9-27,2.6c-13.1-27.8-9.7-58.2-6.4-86.1
		c14.7-124.6,33.6-248.6,51.9-372.7c2.3-15.5,6.4-29.5,24-34.1c94.1,18.1,184.1,51,276.3,75.9c44.4,12,86.7,31.7,133.3,35.2
		c1.9,0.8,3.8,1.7,5.7,2.5c5,4,8.9,8.8,10.9,15c17.7,52.3,15.1,107.2,20.7,161c14.4,138.9,22.2,278.4,38.7,417.1
		c1,19-5.4,35.6-16.5,50.7c-10.9,7.8-19.6,2.5-27.5-5.2C138.1,302,73,235.2,13.6,163C5.4,153-3,142.9,6.2,129"/>
	<path clip-path="url(#SVGID_2_)" fill="#E0861A" d="M6.2,129C78,210,149.7,291,221.5,372c-14.2,18.4-29.5,6.7-43.4,0.5
		C49.3,314.9-78.7,255.7-206,194.8c-35-16.8-74.6-26.1-100.3-58.9h0c13.6-8.3,28.7-6.9,43.6-6.9C-173,129-83.4,129,6.2,129"/>
	<path clip-path="url(#SVGID_2_)" fill="#E0861A" d="M1270.1,1260.8c-32.1-9.4-48.1-38-68.8-60c-71.1-75.7-140.3-153.2-210.7-229.6
		c-37.5-40.8-76.3-80.4-113.8-121.2c-15.8-17.2-27.9-17.8-46-1.3c-89.5,81.7-180.3,162-270.4,243.1c-7.9,7.1-24.2,10.8-18.7,25.4
		c4.5,11.9,19.2,11.5,30.2,14c132,29.5,264.1,58.6,396,88c96.9,21.6,193.7,43.5,291.2,65.4c-2.5,14.7-15.2,13.6-23.8,16.4
		c-197.7,64.8-395.6,129.1-593.3,193.7c-16.2,5.3-34.3,7.6-45.5,23c0.5,7.9-3.5,9.3-10.1,6.9c-2.9-2.3-5.2-5.2-6.8-8.6
		c-21.5-59.3-23.1-122.3-34-183.6c-8.5-47.7-19.3-95.2-18.9-144.1c0.1-11.1-6.3-16.7-14.5-21.6c-16.6-6.7-28.9,3.6-41.4,11.2
		c-135.3,83.1-271.6,164.8-407,247.8c-17.9,11-35.6,21.3-58,15.3c-3.4-2.2-5.9-5-7.7-8.5c-2.8-10-4-20.3-9.3-29.5
		c16-72.7-8.1-143.5-10.7-215.4c-1.7-46-0.8-92.4-7-138.3c-1.4-10.3,0.2-20.9,8.6-28.7c22.9-14.1,47.2-6.8,70.7-3
		c133.2,21.9,265.9,47,399.3,68.5c12.2,2,26.4,8.9,35.6-3.3c8.9-11.8-0.1-24.4-4.7-35.9c-76-192.2-154.4-383.4-228.9-576.2
		c-9.7-25-22.4-49.4-16.2-77.8c1.8-3.1,4.3-5.6,7.4-7.4c19-5.4,33.5,4.7,47.5,14.8c173.1,125.4,347.4,249,520.5,374.4
		c12,8.7,23,19.9,39.7,18.4c11.1-0.6,14.5-8.3,18.8-17.2c40.2-82.1,88.8-159.5,133-239.4c10.1-18.2,23.5-29,45-15.5
		c10.6,11.1,17.3,24.1,21.9,38.7c67.9,214.7,135.5,429.5,203.2,644.2C1278.4,1222.5,1294,1243.2,1270.1,1260.8"/>
	<path clip-path="url(#SVGID_2_)" fill="#EA8C1C" d="M249.3,392.9h-3.5h-3.5c-3.5,3.5-7,6.9-10.7,10.2
		C148.2,479.3,57.1,546.3-31.4,616.5c-42.2,33.5-79.9,73.4-130.1,96.1c-5.4-0.5-9.9-2.6-12.9-7.3c0-4.6,0-9.2,0-13.7
		c10-14.7,2.3-28.7-1.4-43.1c-43.6-170.8-87-341.7-130.5-512.6c41.2,8.8,77.2,30.2,114.9,47.3C-53.5,245.8,83.9,309,221.5,372
		c9.5-15.2,6.2-32.2,7-48.6c22.3-1.2,36.2-12.9,49.4-31.2c84.7-117,173.9-230.8,255-350.3c38.6-56.9,93.9-63.5,150.6-64.6
		c65.6-1.3,131.8,1.9,197.1,7.7c72.6,6.5,145.3,4.8,217.9,9.5c72.4,4.7,145.2,10.5,218,9.1c28.9-0.6,54.1,10.2,78.5,23.9l0.1,0.1
		c-1.7,26.6-25.8,35.5-42.6,44.9c-105.8,58.7-211.5,117.8-319.4,172.9c-3,1.5-6.8,1.3-10.2,1.5c-14.7,4.1-26.5-2.4-38.9-9.2
		C881.9,81.5,782.9,20,681.3-36.8C670.2-43,659.7-50.2,643.4-57c10.6,29.2,21,54.9,33.9,79.5c33.1,63.4,60.4,129.6,92.3,193.6
		c9.2,18.4,24.2,39.1,2.6,60c-46.8,28.2-101.2,29.4-152.3,40.9c-103.1,23.2-206.9,43.6-310.3,65.8
		C289.6,387,268.2,382.6,249.3,392.9"/>
	<path clip-path="url(#SVGID_2_)" fill="#E0861A" d="M1395-72.4c-104.7-9.2-209.6-11.4-314.6-14.9c-144.1-4.9-288.1-12-432.1-20.4
		c-40.3-2.3-65.5,11.3-89.1,44.3c-98,137.3-198.9,272.6-298.8,408.5c-4.7,6.4-10,12.3-16.1,19.8c-14.8-11.7-5.2-30.7-15.9-41.4
		c-8.2-97.8-16.5-195.6-24.7-293.4c-8.1-96.6-16-193.3-24-289.9c66,14.2,125.9,45.4,189.1,67.5c62.2,21.8,123.8,45.3,184.8,70
		c34.3,13.8,62.9,4,91.8-13.2c105.3-62.6,211.3-124.1,315.9-187.9c27.7-16.9,48.4-16.5,75.2,2c109.3,75.7,220.1,149.2,330.5,223.5
		C1377.7-90.8,1388.3-83.8,1395-72.4"/>
	<path clip-path="url(#SVGID_2_)" fill="#F4931D" d="M-174.3,705.3c4.6,0,9.3,0.1,13.9,0.1c12,0.1,19.5,6.9,24.9,16.7
		c28.4,169.8,79.5,334.4,113.6,502.9c12.2,60.1,17.7,121.4,28.2,181.8c0,9.3,0,18.5,0,27.8c-2.3,0-4.6,0-6.9,0
		c-44.4-12.1-71.5-48.8-102.7-77.4c-105.3-96.5-207.7-196.3-311.7-294.2c-55.4-52.1-107.6-107.5-165.6-156.9
		c-13-11.1-23.8-23-10.2-40.8C-452,811.8-313.2,758.6-174.3,705.3"/>
	<path clip-path="url(#SVGID_2_)" fill="#EA8C1C" d="M1540.9,677.6c-4.6,4.6-9.3,9.2-13.9,13.8c-3,3.6-6.7,4.2-10.9,2.9
		c-1-0.9-2-1.9-3-2.8c-34.2-27.9-77.6-35.2-117.2-50.2c-105.7-40.3-212.6-77.3-318.9-115.9c-12.3-4.5-24-8.9-36.2-0.5
		c-15.5,3.3-21.3,16.1-28.1,28.3c-43.2,77.5-86.6,154.8-130.2,232.1c-7.9,14-15.6,28.4-29.2,38.1c-30-42.9-27.8-94.4-35.2-142.6
		c-18.4-119.4-36.2-238.9-53-358.5c-1.9-13.7-5-27.3,0.5-40.8c10.3-15.7,23-16.5,38.1-6.5c11.6,7.6,23,15.2,32.6,25.3
		c49.8,52.6,107.5,96.8,157.3,149.4c10.7,11.3,21.3,24.8,39.6,24.5c13.3-0.3,15.7-11.8,21-20.4c96.4-154.9,195.5-308.1,293-462.3
		c15.3-24.2,37.4-41.7,54.7-63.8l0.1-0.1c4.6-4,9.2-4.3,13.8,0l0.1,0.1c2.5,3.1,4.6,6.4,6.3,9.9c30.5,151.6,44.2,305.7,66,458.5
		c11.2,78.8,20.6,157.8,31.2,236.6c1.1,8,0.5,16.3,7.1,22.4C1533.1,661.4,1541,667,1540.9,677.6"/>
	<path clip-path="url(#SVGID_2_)" fill="#F4931D" d="M228.5,392.9h13.9c48.8,138.6,106,273.8,160.1,410.4
		c37,93.6,74.4,187,112.3,280.2c10.6,26.1,3.2,34.3-23.8,29.5c-166.2-29.5-332.4-58.8-498.6-88.1c-4.8-3.2-7.8-7.6-8.7-13.4
		C-16,962.5,8.5,920.7,25,876.9c51.4-136,105.5-270.9,156.4-407.1C192.2,441,208.8,416.1,228.5,392.9"/>
	<path clip-path="url(#SVGID_2_)" fill="#F4931D" d="M777,274.8c17.3,119.9,35.2,239.8,51.6,359.9c8.6,62.8,23.9,124.8,24.8,188.7
		c-99-70.1-198.1-140-296.9-210.4c-102.6-73.1-204.8-146.7-307.2-220c-2.3-17.1,10.7-18.1,21.9-20.4
		c166.3-34.9,332.6-69.7,498.9-104.6C776.5,266.1,778.7,268.6,777,274.8"/>
	<path clip-path="url(#SVGID_2_)" fill="#EA8C1C" d="M-7.7,1010.8c0,4.6,0,9.3,0,13.9c-8.8,45.7-0.2,91.5,1.9,136.9
		c3.7,81.7,11.5,163.2,12,245c-18.9-30.5-19-66.4-26.9-99.8c-45.2-193.4-88.7-387.1-132.8-580.8c18.3-7.3,25.7,6.2,31,18.5
		C-84.1,833.4-32.9,916.5-7.7,1010.8"/>
	<path clip-path="url(#SVGID_2_)" fill="#E0861A" d="M1020,135.9c4.6,122.7,9.3,245.4,13.9,368c-65.4-47.5-118.1-109-178.5-162
		c-25.9-22.7-49.9-47.6-78.4-67.2c-2.3-2.3-4.6-4.6-6.9-7c-24.5-73.7-63.6-140.8-95.3-211.2c-22.1-49-45.4-97.4-72.2-154.8
		c54,21.4,92.6,50.8,134.5,73.6C832.3,27.3,922.7,87.7,1020,135.9"/>
	<path clip-path="url(#SVGID_2_)" fill="#E0861A" d="M-7.7,1010.8c-17.5-6.6-20.7-23.4-27.7-37.8c-40.2-81.9-71.8-167.9-118-246.9
		c-2.3-6.9-4.7-13.9-7-20.8c43.7-49.5,99.4-84.8,150-126.1c71.2-58.1,143.4-115,215.4-172.1c7.1-5.7,15.6-9.6,23.5-14.3
		c-40.1,105.8-79.9,211.7-120.3,317.4C69.9,810.5,31,910.6-7.7,1010.8"/>
</g>
<polygon fill="#F89621" points="621,631.4 800.3,631.4 592,245 509.1,403.8 "/>
<g>
	<defs>
		<polygon id="SVGID_3_" points="509.1,403.8 621,631.4 800.3,631.4 592,245 		"/>
	</defs>
	<clipPath id="SVGID_4_">
		<use xlink:href="#SVGID_3_"  overflow="visible"/>
	</clipPath>
	<path clip-path="url(#SVGID_4_)" fill="#EA8C1C" d="M21.5-1644.2h263.9c11.3,19.6-3.9,30.7-15.1,41.2
		c-31.2,29.3-64.5,56.2-93.5,87.8c-7.7,8.4-18,14.8-20.9,27c5,10,14,6.9,21.4,6c181.1-23.8,362.1-48.3,543.2-71.2
		c37-4.7,74.6-19.4,112.5-2.9c15.4,21.1,1,34-13.4,46.3c-48.4,41.2-98,81-148.3,119.9c-28.3,22-55.8,45-83.5,67.7
		c-22.3,18.2-22,28.6,0.7,46.6c47.2,37.3,98.3,69.2,147,104.5c27.1,19.6,52.1,41.6,78.5,62c3.4,4,5.1,8.6,5,13.8
		c-53.7,76.4-113.5,148.4-167.7,224.5c-15.2,21.3-36.6,38.6-43.8,65.3c-0.9,3.3-2.3,6.4-4.2,9.3c-3.4,4.1-7.7,6.7-12.7,8
		c-36.5,15.5-64.2,44.1-96.3,66c-83,56.7-165.4,114.5-247.3,172.9c-34.4,24.5-36.2,33.2-8.6,65.7c74.7,88.2,147.5,178,222.5,265.9
		c12.9,15.1,22.7,32,32.7,48.9c5.4,9.2,6.3,17.2-2.5,24.7c-17.9,9.7-36,5.8-53.7,0.1c-103.4-32.9-208.1-61.6-312.2-92.1
		c-14.5-4.2-28.1-10.4-40.6-19c-2.6-2.4-4.4-5.3-5.2-8.7c-2.6-65.6,35.4-119.7,52-179.8c2.1-7.7,6.5-14.8,9.1-22.4
		c16.9-49.7,15-56.1-28.8-85.4C57.3-588,2.9-624.9-53.1-661c-8.2,10.8-1.3,18.6,1.8,26.2C-9.8-534.6,31.5-434.4,71.3-333.6
		c8.7,22,15.9,44.2,6,67.9c-11.3,11.9-23.2,5.7-35.2,1.3c-33.7-12.3-65.2-29.7-98.8-42.3c-10.5-3.9-21.7-13.2-32.4-4.3
		c-10.5,8.8-4.3,21.7-1.9,32.7C-64.6-155.2-34.8-32.7-7.4,90.3c6,27.1,13.6,53.9,14.9,81.7c0.7,14.5,6.4,24.2,20.4,28.4
		c19.2,6.4,30-7.5,42.3-17.5C190.6,84,311.5-14.1,433.3-111.1c15.1-12,33-36,53.1-19.3c17.1,14.2,3.5,39.4-3.4,57.6
		c-29.6,77.7-66.1,152.4-99.3,228.5c-12,27.5-23.6,55.2-36.9,82.1c-5.8,11.7-11.8,22.4-24.9,27.3c-78.6,6.9-157.2,4.5-235.7,1.3
		c-19.5-0.8-37.3-1.7-55.1,6.1c-16.6-1-26.9,9.2-38.1,19.9c-72.8,69.4-136.6,147.3-208.9,217.1c-16.6,16-33,32.3-51.5,46.2
		c-3.3,1.1-6.6,1.4-10,1c-40.5-17.8-66.6-52.7-95.5-83.4c-98.5-104.9-197.2-209.5-298.6-311.6c-16.3-16.4-31.5-33.7-24.1-60
		c16.9-14.9,35.5-5.8,52.8-2.5c133.9,25.7,267,55.1,400.4,83.6c69.7,14.9,140,27.3,204.6,44.6c-33.7-21.3-63.2-54.6-95-84.3
		c-101.3-94.6-204.4-187.3-305.7-282c-41.3-38.6-82.8-76.8-122.8-116.9c-53.4-53.5-93.5-117.3-142.1-174.4
		c-21.7-25.5-42.8-51.7-61.7-79.3c-14.4-21-32.1-35.9-57.2-41.3c-5-2.8-10.1-5.5-14.8-9c-8.3-5.5-15.7-7.6-27.2-7.3
		c-170.6,5-341.3,2.2-511.9,2.3c-14.8,0-30.1,0.7-43.5-8c-15.4-19.4-2.3-29.7,13.4-37c21-9.8,44.1-13.7,65.9-21.2
		c161.8-55.5,325.2-106.3,487.5-160.4c23.1-7.7,46.9-11.9,70.4-17.6c33.6-8.1,51.8,7.5,46.5,41.8c-5.5,35.4-16.8,69.6-24.7,104.6
		c-10.4,46.3-2.7,54.3,44.3,46.1c149.2-25.9,297.5-56.1,446.3-83.9c34.4-6.4,68.7-14.4,99.6-9.5c-98.9-2.5-199.8-25.4-301.9-38.2
		c-74.5-9.4-148.6-21.3-222.9-32.6c-20-3-42.5-3.9-52.7-27.1c-6.7-15.8,0.2-28.5,9.1-40.8c18.7-4.1,28.8-18.5,41.3-31.7
		c69.6-73.8,142.2-144.6,214.4-215.8c8.5-8.3,18.3-13.8,30.5-14.6c3.5,0.4,6.7,1.5,9.7,3.2c87.4,80.9,160.8,174.8,243.2,260.3
		c34.6,35.9,59.1,82.7,110.6,102.1c21,7.9,39.9,9.1,60.5,6.2c180.8-24.7,361.3-52.1,542.2-75.9c17.5-2.3,34.3-6,44.6-22.5
		c7.4-9.1,5.7-18.9,4.2-29.6c-17.2-124.4-30.7-249.3-43.9-374.2c-3.4-32.6-21.1-49.1-50.1-58.4c-100-32-198-69.7-298.1-101.2
		c-24.7-7.8-45.4-28.2-73.9-24c-7.9-1.7-13.1-7.2-18.4-12.6c-2.1-3.1-3.8-6.5-5.2-10c-22.3-49.9-42-100.9-58.1-153.2
		C9.7-1616.4,5.6-1631.9,21.5-1644.2"/>
	<path clip-path="url(#SVGID_4_)" fill="#F4931D" d="M-575.6-255.4c-52.3,23.9-105.3,46.5-156.9,71.8
		c-195.8,96-391.1,193.2-586.8,289.4c-32.1,15.7-65.2,29.2-95.9,47.8c-10.4,6.3-21.5,14.9-35.3,7.7
		C-1339.9,35.5-1229.1-90-1118.8-216c100.4-114.7,200.1-230,300.1-345c15.8-12.9,27-10.3,39.9,6.5c61.7,80.6,125.5,159.7,187,240.5
		c59.3,77.9,138.5,135.1,207.6,202.9c66.7,65.4,139,124.9,207.1,188.9c51.3,48.2,102.6,96.4,156.1,142.2
		c7.7,6.6,16.5,12.8,21.5,30.9c-233.7-48.9-464-97.1-694.2-145.2c-28.7-5.9-16.4-25.8-11.7-39.9C-688.8,15.3-668.7-34-649-83.4
		c21.5-53.9,36.3-111.1,71.8-158.8C-574.5-245.9-574.1-250.7-575.6-255.4"/>
	<path clip-path="url(#SVGID_4_)" fill="#F4931D" d="M327,251.6c21-68.7,54.8-132,83.2-197.6C435-3.2,459.8-60.2,488.3-125.8
		c-44.8,22.5-74.4,50.8-105.6,76.1C268.5,42.3,155.3,135.5,41.6,228c-7.9,6.4-16.3,20.9-27,2.6c-13.1-27.8-9.7-58.2-6.4-86.1
		C22.8,19.9,41.7-104.1,60-228.3c2.3-15.5,6.4-29.5,24-34.1c94.1,18.1,184.1,51,276.3,75.9c44.4,12,86.7,31.7,133.3,35.2
		c1.9,0.8,3.8,1.7,5.7,2.5c5,4,8.9,8.8,10.9,15C528-81.5,525.5-26.5,531,27.3c14.4,138.9,22.2,278.4,38.7,417.1
		c1,19-5.4,35.6-16.5,50.7c-10.9,7.8-19.6,2.5-27.5-5.2c-66.8-65.2-132-132-191.3-204.2C326.2,275.5,317.9,265.4,327,251.6"/>
	<path clip-path="url(#SVGID_4_)" fill="#E0861A" d="M598-804c0-2.3,0-4.5,0-6.8c11.4-16.3,28.4-21.2,46.9-23.9
		c133.3-19.2,266.8-36.7,400.4-54.4c19.4-2.6,39-2.7,58.5-0.2c3.7,0.9,6.9,2.6,9.7,5.2c13.5,24.8-6.9,36.6-21,47.9
		c-30.7,24.8-57,53.8-85.1,81.1c-7.2,7-18.1,13.8-15,25.4c3.2,12,16.1,11.3,26,13.3c80.2,16.5,160.6,31.8,240.7,48.5
		c26.8,5.6,54.1,10.8,75.1,31.2c-3.1,25.5-13.2,48.6-26.7,69.8c-108,169.7-217.5,338.4-324.6,508.7c-12.6,20.1-29,36.7-44.8,53.9
		C923.4,11.3,908.8,6.4,903.2-15c-3.5-13.5-4.2-27.8-2-41.4c13-82.6,6.9-166.1,10.7-249.1c5.5-119.9,10.3-240,11.9-360.1
		c0.1-8.9-2.3-15.6-7.7-21.9c-11.8-18.1-31.1-22.5-50.1-27.9c-77.8-22-156.3-41.2-233.9-63.9C617.9-783.5,601.7-785.3,598-804"/>
	<path clip-path="url(#SVGID_4_)" fill="#F4931D" d="M-270.1,550.1c4.5-7.9,7.6-17.1,13.7-23.4C-175,442.3-93.2,358.3-11.5,274.3
		c7.3-7.5,15.6-13.6,26.2-15.8c1.7,0.9,3.4,1.7,5.1,2.6c15.2,15.2,22.5,34.3,27.2,54.9c34.8,151.7,79.3,301,115.7,452.3
		c4.5,18.6,8.5,36.2-7.7,51.2c-18.1,6.4-33.9-0.3-48.6-9.7C-6.9,736.8-122.1,666.9-235.4,593.9
		C-251.7,583.3-269.6,573.4-270.1,550.1"/>
	<path clip-path="url(#SVGID_4_)" fill="#E0861A" d="M-270.1,550.1c138.9,88,277.7,176,416.6,264c4.3,4.3,6,9.6,5.4,15.6
		c-4.6,15.7-19,19.2-31.6,24.2C4.4,899.8-111.5,945.5-228.2,989.3c-16.3,6.1-33,10.1-50.5,3.7c-3.4-2.7-5.9-6-7.7-10
		c-7.8-16.3-7.5-33.8-7.6-51.1c-0.4-104.1-0.2-208.2-0.2-312.3c0-24.8,3.1-48.4,17.2-69.5l0,0C-274.7,550.1-272.4,550.1-270.1,550.1
		"/>
	<path clip-path="url(#SVGID_4_)" fill="#E0861A" d="M84-262.4C58.1-98.4,33.9,65.7,14.5,230.6c-10.4-7.3-12.4-18.6-15-30
		c-38-167.5-76.3-334.9-114.5-502.3c-1.8-7.9-2.6-15.9-4.5-23.8c-4.9-20.7,2.5-25.9,21.4-17.7c48.6,21,97.3,42,146,62.9
		c9.5,4.1,19.3,7.4,29,11c2.3-3.5,4.6-3.3,6.9,0.1V-262.4z"/>
	<path clip-path="url(#SVGID_4_)" fill="#E0861A" d="M327,251.6c71.8,81,143.5,162,215.3,243c-14.2,18.4-29.5,6.7-43.4,0.5
		c-128.8-57.6-256.8-116.8-384-177.7c-35-16.8-74.6-26.1-100.3-58.9h0c13.6-8.3,28.7-6.9,43.6-6.9
		C147.8,251.5,237.4,251.5,327,251.6"/>
	<path clip-path="url(#SVGID_4_)" fill="#E0861A" d="M1590.9,1383.4c-32.1-9.4-48.1-38-68.8-60c-71.1-75.7-140.3-153.2-210.7-229.6
		c-37.5-40.8-76.3-80.4-113.8-121.2c-15.8-17.2-27.9-17.8-46-1.3c-89.5,81.7-180.3,162-270.4,243.1c-7.9,7.1-24.2,10.8-18.7,25.4
		c4.5,11.9,19.2,11.5,30.2,14c132,29.5,264.1,58.6,396,88c96.9,21.6,193.7,43.5,291.2,65.4c-2.5,14.7-15.2,13.6-23.8,16.4
		c-197.7,64.8-395.6,129.1-593.3,193.7c-16.2,5.3-34.3,7.6-45.5,23c0.5,7.9-3.5,9.3-10.1,6.9c-2.9-2.3-5.2-5.2-6.8-8.6
		c-21.5-59.3-23.1-122.3-34-183.6c-8.5-47.7-19.3-95.2-18.9-144.1c0.1-11.1-6.3-16.7-14.5-21.6c-16.6-6.7-28.9,3.6-41.4,11.2
		c-135.3,83.1-271.6,164.8-407,247.8c-17.9,11-35.6,21.3-58,15.3c-3.4-2.2-5.9-5-7.7-8.5c-2.8-10-4-20.3-9.3-29.5
		c16-72.7-8.1-143.5-10.7-215.4c-1.7-46-0.8-92.4-7-138.3c-1.4-10.3,0.2-20.9,8.6-28.7c22.9-14.1,47.2-6.8,70.7-3
		c133.2,21.9,265.9,47,399.3,68.5c12.2,2,26.4,8.9,35.6-3.3c8.9-11.8-0.1-24.4-4.7-35.9c-76-192.2-154.4-383.4-228.9-576.2
		c-9.7-25-22.4-49.4-16.2-77.8c1.8-3.1,4.3-5.6,7.4-7.4c19-5.4,33.5,4.7,47.5,14.8c173.1,125.4,347.4,249,520.5,374.4
		c12,8.7,23,19.9,39.7,18.4c11.1-0.6,14.5-8.3,18.8-17.2c40.2-82.1,88.8-159.5,133-239.4c10.1-18.2,23.5-29,45-15.5
		c10.6,11.1,17.3,24.1,21.9,38.7c67.9,214.7,135.5,429.5,203.2,644.2C1599.2,1345,1614.9,1365.7,1590.9,1383.4"/>
	<path clip-path="url(#SVGID_4_)" fill="#EA8C1C" d="M2431.1-172.1l-13.9,0.1l-0.1-0.1c-223-18.6-435.3-90.7-653.8-131.6
		c-70.4-13.2-74.3-11.4-62.2,60.5c12.8,76.4,23.2,153.1,35.9,229.5c3.3,19.8,3.1,39.1-6.7,57.3c-1,3.6-2.9,6.6-5.7,9.1
		c-1.6,0.7-3.3,1.4-4.9,2.1c-1.7,0-3.5,0.1-5.3,0.2c-119.7-67.4-230.2-149.1-344.5-224.9c-33.6-22.3-61.3-27.9-97.8-5.2
		c-81.4,50.5-165,97.5-247,147.2c-28.1,17.1-57.5,31-88,42.1c-23.9,8.7-49.2,9.3-74.3-0.2C759.2-25.4,655.3-64.3,551.7-103.6
		c-19.5-7.4-38.6-15.6-51.1-33.7c-2.3-4.6-4.6-9.2-6.9-13.8c2.3,0,4.7,0,7,0c31.5-21.4,48.2-55.8,70.9-84.4
		c115.4-145.6,228-293.4,341.8-440.3c7-9,16.4-16,24.7-23.9c5.1,134.2-4,268.2-9.3,402c-3.2,81.7,3.5,164.2-10.8,245.6
		c-2.5,14-0.4,28.8,3.3,43.9c40.4-42.3,66.6-92.3,97.1-139.2c91.4-140.6,181.1-282.2,271.4-423.4c13.7-21.4,28.7-42,37.2-66.3
		c-2.4-3.3-2-6.3,1.3-8.8c12-1.7,21,0.3,19.7,15.5c4,50.1-4.6,99.8-4.4,149.9c0.2,60,3.5,120.1-5.2,180.1
		c-5.7,39.6,8.4,50.4,45.1,36.4c68.1-26,138.9-44.2,206.2-72.2c34.2-14.2,34.9-22.1,7.1-47.1c-72.1-64.9-146.4-127.4-219.2-191.7
		c-17-15-46.7-29.1-24.8-61.6c19.2-15.3,42.2-11.5,63.1-9.4c69.3,7.1,139.4,7.7,207.6,22.7c18.5,4.1,35.1-4.3,52.3,0.6
		c5.6,2.4,11.6,3.5,17.2,5.6c3.5,2,6.5,4.6,8.9,7.9c0,2.3,0,4.6,0,6.9c11.3,8.7,12.3,19.8,11.7,33.7c-2.3,55.4-16.2,109.4-19.7,172
		c96.4-77.2,177.6-163.1,271.8-233.5c22.5-7.1,24.7-21.4,19.3-42.9c-32.5-130.9-63.9-262.2-95.1-393.4c-3.1-12.8-14.3-29.5-1.8-38.8
		c12.9-9.7,24.6,7.5,35.9,13.8c65.6,36.2,130.5,73.7,195.9,110.3c12.7,7.1,26.2,22.3,40.2,14.5c14.5-8.1,4.9-27.5,7-41.8
		c0.5-3.4,0.1-6.9,0.1-10.4c11.8,22.2,5.1,46.3,6.9,69.5l0,0c-5.5,68-52.4,117.1-80.4,174.7c-17.1,35.2-37.8,68.8-58.1,102.3
		c-15,24.7-11.6,45.2,8.2,65.3c72.1,73.1,141,149.3,209.9,225.3c54.9,60.5,118.3,114.7,156.5,189.3c4.6,2.3,9.3,4.7,13.9,7
		C2426.5-181.3,2428.8-176.7,2431.1-172.1"/>
	<path clip-path="url(#SVGID_4_)" fill="#EA8C1C" d="M570.1,515.4h-3.5h-3.5c-3.5,3.5-7,6.9-10.7,10.2
		C469,601.9,377.9,668.8,289.5,739c-42.2,33.5-79.9,73.4-130.1,96.1c-5.4-0.5-9.9-2.6-12.9-7.3c0-4.6,0-9.2,0-13.7
		c10-14.7,2.3-28.7-1.4-43.1c-43.6-170.8-87-341.7-130.5-512.6c41.2,8.8,77.2,30.2,114.9,47.3c137.8,62.6,275.2,125.8,412.8,188.8
		c9.5-15.2,6.2-32.2,7-48.6c22.3-1.2,36.2-12.9,49.4-31.2c84.7-117,173.9-230.8,255-350.3c38.6-56.9,93.9-63.5,150.6-64.6
		c65.6-1.3,131.8,1.9,197.1,7.7c72.6,6.5,145.3,4.8,217.9,9.5c72.4,4.7,145.2,10.5,218,9.1c28.9-0.6,54.1,10.2,78.5,23.9l0.1,0.1
		c-1.7,26.6-25.8,35.5-42.6,44.9c-105.8,58.7-211.5,117.8-319.4,172.9c-3,1.5-6.8,1.3-10.2,1.5c-14.7,4.1-26.5-2.4-38.9-9.2
		c-102.1-56.1-201.1-117.6-302.7-174.4c-11.1-6.2-21.6-13.3-37.9-20.2c10.6,29.2,21,54.9,33.9,79.5c33.1,63.4,60.4,129.6,92.3,193.6
		c9.2,18.4,24.2,39.1,2.6,60c-46.8,28.2-101.2,29.4-152.3,40.9c-103.1,23.2-206.9,43.6-310.3,65.8
		C610.4,509.5,589,505.1,570.1,515.4"/>
	<path clip-path="url(#SVGID_4_)" fill="#E0861A" d="M1715.8,50.1c-104.7-9.2-209.6-11.4-314.6-14.9c-144.1-4.9-288.1-12-432.1-20.4
		c-40.3-2.3-65.5,11.3-89.1,44.3c-98,137.3-198.9,272.6-298.8,408.5c-4.7,6.4-10,12.3-16.1,19.8c-14.8-11.7-5.2-30.7-15.9-41.4
		c-8.2-97.8-16.5-195.6-24.7-293.4c-8.1-96.6-16-193.3-24-289.9c66,14.2,125.9,45.4,189.1,67.5c62.2,21.8,123.8,45.3,184.8,70
		c34.3,13.8,62.9,4,91.8-13.2c105.3-62.6,211.3-124.1,315.9-187.9c27.7-16.9,48.4-16.5,75.2,2c109.3,75.7,220.1,149.2,330.5,223.5
		C1698.6,31.7,1709.2,38.7,1715.8,50.1"/>
	<path clip-path="url(#SVGID_4_)" fill="#F4931D" d="M146.5,827.8c4.6,0,9.3,0.1,13.9,0.1c12,0.1,19.5,6.9,24.9,16.7
		c28.4,169.8,79.5,334.4,113.6,502.9c12.2,60.1,17.7,121.4,28.2,181.8c0,9.3,0,18.5,0,27.8c-2.3,0-4.6,0-6.9,0
		c-44.4-12.1-71.5-48.8-102.7-77.4C112.1,1383,9.8,1283.3-94.2,1185.4c-55.4-52.1-107.6-107.5-165.6-156.9
		c-13-11.1-23.8-23-10.2-40.8C-131.2,934.3,7.6,881.1,146.5,827.8"/>
	<path clip-path="url(#SVGID_4_)" fill="#F4931D" d="M549.3,515.4h13.9c48.8,138.6,106,273.8,160.1,410.4
		c37,93.6,74.4,187,112.3,280.2c10.6,26.1,3.2,34.3-23.8,29.5c-166.2-29.5-332.4-58.8-498.6-88.1c-4.8-3.2-7.8-7.6-8.7-13.4
		c0.3-48.9,24.8-90.7,41.4-134.5c51.4-136,105.5-270.9,156.4-407.1C513,563.5,529.7,538.6,549.3,515.4"/>
	<path clip-path="url(#SVGID_4_)" fill="#F4931D" d="M1097.9,397.3c17.3,119.9,35.2,239.8,51.6,359.9
		c8.6,62.8,23.9,124.8,24.8,188.7c-99-70.1-198.1-140-296.9-210.4c-102.6-73.1-204.8-146.7-307.2-220c-2.3-17.1,10.7-18.1,21.9-20.4
		c166.3-34.9,332.6-69.7,498.9-104.6C1097.3,388.7,1099.5,391.1,1097.9,397.3"/>
	<path clip-path="url(#SVGID_4_)" fill="#EA8C1C" d="M313.2,1133.4c0,4.6,0,9.3,0,13.9c-8.8,45.7-0.2,91.5,1.9,136.9
		c3.7,81.7,11.5,163.2,12,245c-18.9-30.5-19-66.4-26.9-99.8c-45.2-193.4-88.7-387.1-132.8-580.8c18.3-7.3,25.7,6.2,31,18.5
		C236.7,955.9,288,1039,313.2,1133.4"/>
	<path clip-path="url(#SVGID_4_)" fill="#E0861A" d="M313.2,1133.4c-17.5-6.6-20.7-23.4-27.7-37.8c-40.2-81.9-71.8-167.9-118-246.9
		c-2.3-6.9-4.7-13.9-7-20.8c43.7-49.5,99.4-84.8,150-126.1c71.2-58.1,143.4-115,215.4-172.1c7.1-5.7,15.6-9.6,23.5-14.3
		C509.2,621.2,469.4,727.1,429,832.8C390.7,933.1,351.8,1033.2,313.2,1133.4"/>
</g>
<polygon fill="#F89621" points="86.1,691 0,851.8 919.5,851.8 833.5,691 "/>
<g>
	<defs>
		<polygon id="SVGID_5_" points="86.1,691 0,851.8 919.5,851.8 833.5,691 		"/>
	</defs>
	<clipPath id="SVGID_6_">
		<use xlink:href="#SVGID_5_"  overflow="visible"/>
	</clipPath>
	<path clip-path="url(#SVGID_6_)" fill="#EA8C1C" d="M-173.4-1311.1H90.5c11.3,19.6-3.9,30.7-15.1,41.2
		c-31.2,29.3-64.5,56.2-93.5,87.8c-7.7,8.4-18,14.8-20.9,27c5,10,14,6.9,21.4,6c181.1-23.8,362.1-48.3,543.2-71.2
		c37-4.7,74.6-19.4,112.5-2.9c15.4,21.1,1,34-13.4,46.3c-48.4,41.2-98,81-148.3,119.9c-28.3,22-55.8,45-83.5,67.7
		c-22.3,18.2-22,28.6,0.7,46.6c47.2,37.3,98.3,69.2,147,104.5c27.1,19.6,52.1,41.6,78.5,62c3.4,4,5.1,8.6,5,13.8
		c-53.7,76.4-113.5,148.4-167.7,224.5c-15.2,21.3-36.6,38.6-43.8,65.3c-0.9,3.3-2.3,6.4-4.2,9.3c-3.4,4.1-7.7,6.7-12.7,8
		c-36.5,15.5-64.2,44.1-96.3,66c-83,56.7-165.4,114.5-247.3,172.9c-34.4,24.5-36.2,33.2-8.6,65.7c74.7,88.2,147.5,178,222.5,265.9
		c12.9,15.1,22.7,32,32.7,48.9c5.4,9.2,6.3,17.2-2.5,24.7c-17.9,9.7-36,5.8-53.7,0.1C139.2,156.1,34.6,127.4-69.6,96.9
		c-14.5-4.2-28.1-10.4-40.6-19c-2.6-2.4-4.4-5.3-5.2-8.7C-118,3.5-80-50.5-63.4-110.6c2.1-7.7,6.5-14.8,9.1-22.4
		c16.9-49.7,15-56.1-28.8-85.4c-54.6-36.5-109-73.3-165-109.4c-8.2,10.8-1.3,18.6,1.8,26.2c41.4,100.2,82.7,200.4,122.6,301.2
		c8.7,22,15.9,44.2,6,67.9c-11.3,11.9-23.2,5.7-35.2,1.3c-33.7-12.3-65.2-29.7-98.8-42.3c-10.5-3.9-21.7-13.2-32.4-4.3
		c-10.5,8.8-4.3,21.7-1.9,32.7c26.5,123.2,56.3,245.7,83.6,368.7c6,27.1,13.6,53.9,14.9,81.7c0.7,14.5,6.4,24.2,20.4,28.4
		c19.2,6.4,30-7.5,42.3-17.5c120.4-98.8,241.3-197,363.1-293.9c15.1-12,33-36,53.1-19.3c17.1,14.2,3.5,39.4-3.4,57.6
		c-29.6,77.7-66.1,152.4-99.3,228.5c-12,27.5-23.6,55.2-36.9,82.1c-5.8,11.7-11.8,22.4-24.9,27.3c-78.6,6.9-157.2,4.5-235.7,1.3
		c-19.5-0.8-37.3-1.7-55.1,6.1c-16.6-1-26.9,9.2-38.1,19.9c-72.8,69.4-136.6,147.3-208.9,217.1c-16.6,16-33,32.3-51.5,46.2
		c-3.3,1.1-6.6,1.4-10,1c-40.5-17.8-66.6-52.7-95.5-83.4c-98.5-104.9-197.2-209.5-298.6-311.6c-16.3-16.4-31.5-33.7-24.1-60
		c16.9-14.9,35.5-5.8,52.8-2.5c133.9,25.7,267,55.1,400.4,83.6c69.7,14.9,140,27.3,204.6,44.6c-33.7-21.3-63.2-54.6-95-84.3
		c-101.3-94.6-204.4-187.3-305.7-282c-41.3-38.6-82.8-76.8-122.8-116.9c-53.4-53.5-93.5-117.3-142.1-174.4
		c-21.7-25.5-42.8-51.7-61.7-79.3c-14.4-21-32.1-35.9-57.2-41.3c-5-2.8-10.1-5.5-14.8-9c-8.3-5.5-15.7-7.6-27.2-7.3
		c-170.6,5-341.3,2.2-511.9,2.3c-14.8,0-30.1,0.7-43.5-8c-15.4-19.4-2.3-29.7,13.4-37c21-9.8,44.1-13.7,65.9-21.2
		c161.8-55.5,325.2-106.3,487.5-160.4c23.1-7.7,46.9-11.9,70.4-17.6c33.6-8.1,51.8,7.5,46.5,41.8c-5.5,35.4-16.8,69.6-24.7,104.6
		c-10.4,46.3-2.7,54.3,44.3,46.1c149.2-25.9,297.5-56.1,446.3-83.9c34.4-6.4,68.7-14.4,99.6-9.5c-98.9-2.5-199.8-25.4-301.9-38.2
		c-74.5-9.4-148.6-21.3-222.9-32.6c-20-3-42.5-3.9-52.7-27.1c-6.7-15.8,0.2-28.5,9.1-40.8c18.7-4.1,28.8-18.5,41.3-31.7
		c69.6-73.8,142.2-144.6,214.4-215.8c8.5-8.3,18.3-13.8,30.5-14.6c3.5,0.4,6.7,1.5,9.7,3.2c87.4,80.9,160.8,174.8,243.2,260.3
		c34.6,35.9,59.1,82.7,110.6,102.1c21,7.9,39.9,9.1,60.5,6.2c180.8-24.7,361.3-52.1,542.2-75.9c17.5-2.3,34.3-6,44.6-22.5
		c7.4-9.1,5.7-18.9,4.2-29.6C350-658.3,336.6-783.2,323.4-908c-3.4-32.6-21.1-49.1-50.1-58.4c-100-32-198-69.7-298.1-101.2
		c-24.7-7.8-45.4-28.2-73.9-24c-7.9-1.7-13.1-7.2-18.4-12.6c-2.1-3.1-3.8-6.5-5.2-10c-22.3-49.9-42-100.9-58.1-153.2
		C-185.2-1283.2-189.3-1298.7-173.4-1311.1"/>
	<path clip-path="url(#SVGID_6_)" fill="#F4931D" d="M132.1,584.7c21-68.7,54.8-132,83.2-197.6c24.8-57.1,49.6-114.2,78.1-179.7
		c-44.8,22.5-74.4,50.8-105.6,76.1C73.6,375.5-39.6,468.6-153.3,561.2c-7.9,6.4-16.3,20.9-27,2.6c-13.1-27.8-9.7-58.2-6.4-86.1
		c14.7-124.6,33.6-248.6,51.9-372.7c2.3-15.5,6.4-29.5,24-34.1c94.1,18.1,184.1,51,276.3,75.9c44.4,12,86.7,31.7,133.3,35.2
		c1.9,0.8,3.8,1.7,5.7,2.5c5,4,8.9,8.8,10.9,15c17.7,52.3,15.1,107.2,20.7,161c14.4,138.9,22.2,278.4,38.7,417.1
		c1,19-5.4,35.6-16.5,50.7c-10.9,7.8-19.6,2.5-27.5-5.2c-66.8-65.2-132-132-191.3-204.2C131.3,608.7,122.9,598.6,132.1,584.7"/>
	<path clip-path="url(#SVGID_6_)" fill="#E0861A" d="M403-470.9c0-2.3,0-4.5,0-6.8c11.4-16.3,28.4-21.2,46.9-23.9
		c133.3-19.2,266.8-36.7,400.4-54.4c19.4-2.6,39-2.7,58.5-0.2c3.7,0.9,6.9,2.6,9.7,5.2c13.5,24.8-6.9,36.6-21,47.9
		c-30.7,24.8-57,53.8-85.1,81.1c-7.2,7-18.1,13.8-15,25.4c3.2,12,16.1,11.3,26,13.3c80.2,16.5,160.6,31.8,240.7,48.5
		c26.8,5.6,54.1,10.8,75.1,31.2c-3.1,25.5-13.2,48.6-26.7,69.8c-108,169.7-217.5,338.4-324.6,508.7c-12.6,20.1-29,36.7-44.8,53.9
		c-14.5,15.7-29.1,10.8-34.7-10.6c-3.5-13.5-4.2-27.8-2-41.4c13-82.6,6.9-166.1,10.7-249.1c5.5-119.9,10.3-240,11.9-360.1
		c0.1-8.9-2.3-15.6-7.7-21.9c-11.8-18.1-31.1-22.5-50.1-27.9c-77.8-22-156.3-41.2-233.9-63.9C423-450.3,406.8-452.2,403-470.9"/>
	<path clip-path="url(#SVGID_6_)" fill="#F4931D" d="M403-470.9c103.8,27.3,207.5,54.6,311.2,82.1c12.5,3.3,24.2,8.4,28.9,22.2
		c-29.7,79-90.8,136.3-140.5,201.2c-82.8,108.3-166.9,215.6-250.8,323c-7.1,9.1-13,19.5-24,24.4c-10.7,4.8-22.5,9.7-27.3-7.9
		c-13.7-24.3-6.6-49.9-3.3-74.5c23.5-172.4,45.7-345,68-517.5c2.7-20.6,14.1-36,23.7-52.8C393.7-470.9,398.4-470.9,403-470.9"/>
	<path clip-path="url(#SVGID_6_)" fill="#E0861A" d="M389.1-470.8c-15,118-30,235.9-45.1,353.9c-12.7,99.6-25.5,199.3-38.2,298.9
		c-2.3,2.4-4.6,2.5-7,0.1l0,0C201.4,64.9,104.3-52.3,6.4-168.8c-12.4-14.7-19.2-24.6,0.8-38.4c123.4-85.3,246.4-171.4,369.6-257.1
		C380.6-467,385-468.7,389.1-470.8"/>
	<path clip-path="url(#SVGID_6_)" fill="#E0861A" d="M132.1,584.7c71.8,81,143.5,162,215.3,243c-14.2,18.4-29.5,6.7-43.4,0.5
		c-128.8-57.6-256.8-116.8-384-177.7c-35-16.8-74.6-26.1-100.3-58.9h0c13.6-8.3,28.7-6.9,43.6-6.9
		C-47.1,584.6,42.5,584.7,132.1,584.7"/>
	<path clip-path="url(#SVGID_6_)" fill="#E0861A" d="M1396,1716.5c-32.1-9.4-48.1-38-68.8-60c-71.1-75.7-140.3-153.2-210.7-229.6
		c-37.5-40.8-76.3-80.4-113.8-121.2c-15.8-17.2-27.9-17.8-46-1.3c-89.5,81.7-180.3,162-270.4,243.1c-7.9,7.1-24.2,10.8-18.7,25.4
		c4.5,11.9,19.2,11.5,30.2,14c132,29.5,264.1,58.6,396,88c96.9,21.6,193.7,43.5,291.2,65.4c-2.5,14.7-15.2,13.6-23.8,16.4
		c-197.7,64.8-395.6,129.1-593.3,193.7c-16.2,5.3-34.3,7.6-45.5,23c0.5,7.9-3.5,9.3-10.1,6.9c-2.9-2.3-5.2-5.2-6.8-8.6
		c-21.5-59.3-23.1-122.3-34-183.6c-8.5-47.7-19.3-95.2-18.9-144.1c0.1-11.1-6.3-16.7-14.5-21.6c-16.6-6.7-28.9,3.6-41.4,11.2
		c-135.3,83.1-271.6,164.8-407,247.8c-17.9,11-35.6,21.3-58,15.3c-3.4-2.2-5.9-5-7.7-8.5c-2.8-10-4-20.3-9.3-29.5
		c16-72.7-8.1-143.5-10.7-215.4c-1.7-46-0.8-92.4-7-138.3c-1.4-10.3,0.2-20.9,8.6-28.7c22.9-14.1,47.2-6.8,70.7-3
		c133.2,21.9,265.9,47,399.3,68.5c12.2,2,26.4,8.9,35.6-3.3c8.9-11.8-0.1-24.4-4.7-35.9c-76-192.2-154.4-383.4-228.9-576.2
		c-9.7-25-22.4-49.4-16.2-77.8c1.8-3.1,4.3-5.6,7.4-7.4c19-5.4,33.5,4.7,47.5,14.8c173.1,125.4,347.4,249,520.5,374.4
		c12,8.7,23,19.9,39.7,18.4c11.1-0.6,14.5-8.3,18.8-17.2c40.2-82.1,88.8-159.5,133-239.4c10.1-18.2,23.5-29,45-15.5
		c10.6,11.1,17.3,24.1,21.9,38.7c67.9,214.7,135.5,429.5,203.2,644.2C1404.3,1678.2,1419.9,1698.8,1396,1716.5"/>
	<path clip-path="url(#SVGID_6_)" fill="#EA8C1C" d="M2236.2,161l-13.9,0.1l-0.1-0.1c-223-18.6-435.3-90.7-653.8-131.6
		c-70.4-13.2-74.3-11.4-62.2,60.5c12.8,76.4,23.2,153.1,35.9,229.5c3.3,19.8,3.1,39.1-6.7,57.3c-1,3.6-2.9,6.6-5.7,9.1
		c-1.6,0.7-3.3,1.4-4.9,2.1c-1.7,0-3.5,0.1-5.3,0.2C1399.8,320.7,1289.3,239,1175,163.3c-33.6-22.3-61.3-27.9-97.8-5.2
		c-81.4,50.5-165,97.5-247,147.2c-28.1,17.1-57.5,31-88,42.1c-23.9,8.7-49.2,9.3-74.3-0.2c-103.6-39.4-207.5-78.2-311.1-117.6
		c-19.5-7.4-38.6-15.6-51.1-33.7c-2.3-4.6-4.6-9.2-6.9-13.8c2.3,0,4.7,0,7,0c31.5-21.4,48.2-55.8,70.9-84.4
		C492-48.1,604.6-195.9,718.5-342.8c7-9,16.4-16,24.7-23.9c5.1,134.2-4,268.2-9.3,402c-3.2,81.7,3.5,164.2-10.8,245.6
		c-2.5,14-0.4,28.8,3.3,43.9c40.4-42.3,66.6-92.3,97.1-139.2C914.8,45,1004.6-96.7,1094.9-237.9c13.7-21.4,28.7-42,37.2-66.3
		c-2.4-3.3-2-6.3,1.3-8.8c12-1.7,21,0.3,19.7,15.5c4,50.1-4.6,99.8-4.4,149.9c0.2,60,3.5,120.1-5.2,180.1
		c-5.7,39.6,8.4,50.4,45.1,36.4c68.1-26,138.9-44.2,206.2-72.2c34.2-14.2,34.9-22.1,7.1-47.1c-72.1-64.9-146.4-127.4-219.2-191.7
		c-17-15-46.7-29.1-24.8-61.6c19.2-15.3,42.2-11.5,63.1-9.4c69.3,7.1,139.4,7.7,207.6,22.7c18.5,4.1,35.1-4.3,52.3,0.6
		c5.6,2.4,11.6,3.5,17.2,5.6c3.5,2,6.5,4.6,8.9,7.9c0,2.3,0,4.6,0,6.9c11.3,8.7,12.3,19.8,11.7,33.7c-2.3,55.4-16.2,109.4-19.7,172
		c96.4-77.2,177.6-163.1,271.8-233.5c22.5-7.1,24.7-21.4,19.3-42.9c-32.5-130.9-63.9-262.2-95.1-393.4c-3.1-12.8-14.3-29.5-1.8-38.8
		c12.9-9.7,24.6,7.5,35.9,13.8c65.6,36.2,130.5,73.7,195.9,110.3c12.7,7.1,26.2,22.3,40.2,14.5c14.5-8.1,4.9-27.5,7-41.8
		c0.5-3.4,0.1-6.9,0.1-10.4c11.8,22.2,5.1,46.3,6.9,69.5l0,0c-5.5,68-52.4,117.1-80.4,174.7c-17.1,35.2-37.8,68.8-58.1,102.3
		c-15,24.7-11.6,45.2,8.2,65.3c72.1,73.1,141,149.3,209.9,225.3c54.9,60.5,118.3,114.7,156.5,189.3c4.6,2.3,9.3,4.7,13.9,7
		C2231.6,151.8,2233.9,156.4,2236.2,161"/>
	<path clip-path="url(#SVGID_6_)" fill="#EA8C1C" d="M375.2,848.5h-3.5h-3.5c-3.5,3.5-7,6.9-10.7,10.2
		C274.1,935,183,1002,94.5,1072.2c-42.2,33.5-79.9,73.4-130.1,96.1c-5.4-0.5-9.9-2.6-12.9-7.3c0-4.6,0-9.2,0-13.7
		c10-14.7,2.3-28.7-1.4-43.1c-43.6-170.8-87-341.7-130.5-512.6c41.2,8.8,77.2,30.2,114.9,47.3c137.8,62.6,275.2,125.8,412.8,188.8
		c9.5-15.2,6.2-32.2,7-48.6c22.3-1.2,36.2-12.9,49.4-31.2c84.7-117,173.9-230.8,255-350.3c38.6-56.9,93.9-63.5,150.6-64.6
		c65.6-1.3,131.8,1.9,197.1,7.7c72.6,6.5,145.3,4.8,217.9,9.5c72.4,4.7,145.2,10.5,218,9.1c28.9-0.6,54.1,10.2,78.5,23.9l0.1,0.1
		c-1.7,26.6-25.8,35.5-42.6,44.9C1372.5,486.9,1266.8,546,1159,601c-3,1.5-6.8,1.3-10.2,1.5c-14.7,4.1-26.5-2.4-38.9-9.2
		c-102.1-56.1-201.1-117.6-302.7-174.4c-11.1-6.2-21.6-13.3-37.9-20.2c10.6,29.2,21,54.9,33.9,79.5c33.1,63.4,60.4,129.6,92.3,193.6
		c9.2,18.4,24.2,39.1,2.6,60c-46.8,28.2-101.2,29.4-152.3,40.9c-103.1,23.2-206.9,43.6-310.3,65.8
		C415.5,842.7,394.1,838.3,375.2,848.5"/>
	<path clip-path="url(#SVGID_6_)" fill="#E0861A" d="M1520.9,383.3c-104.7-9.2-209.6-11.4-314.6-14.9
		c-144.1-4.9-288.1-12-432.1-20.4c-40.3-2.3-65.5,11.3-89.1,44.3c-98,137.3-198.9,272.6-298.8,408.5c-4.7,6.4-10,12.3-16.1,19.8
		c-14.8-11.7-5.2-30.7-15.9-41.4c-8.2-97.8-16.5-195.6-24.7-293.4c-8.1-96.6-16-193.3-24-289.9c66,14.2,125.9,45.4,189.1,67.5
		c62.2,21.8,123.8,45.3,184.8,70c34.3,13.8,62.9,4,91.8-13.2c105.3-62.6,211.3-124.1,315.9-187.9c27.7-16.9,48.4-16.5,75.2,2
		c109.3,75.7,220.1,149.2,330.5,223.5C1503.7,364.9,1514.2,371.9,1520.9,383.3"/>
	<path clip-path="url(#SVGID_6_)" fill="#EA8C1C" d="M1666.8,1133.3c-4.6,4.6-9.3,9.2-13.9,13.8c-3,3.6-6.7,4.2-10.9,2.9
		c-1-0.9-2-1.9-3-2.8c-34.2-27.9-77.6-35.2-117.2-50.2c-105.7-40.3-212.6-77.3-318.9-115.9c-12.3-4.5-24-8.9-36.2-0.5
		c-15.5,3.3-21.3,16.1-28.1,28.3c-43.2,77.5-86.6,154.8-130.2,232.1c-7.9,14-15.6,28.4-29.2,38.1c-30-42.9-27.8-94.4-35.2-142.6
		c-18.4-119.4-36.2-238.9-53-358.5c-1.9-13.7-5-27.3,0.5-40.8c10.3-15.7,23-16.5,38.1-6.5c11.6,7.6,23,15.2,32.6,25.3
		c49.8,52.6,107.5,96.8,157.3,149.4c10.7,11.3,21.3,24.8,39.6,24.5c13.3-0.3,15.7-11.8,21-20.4c96.4-154.9,195.5-308.1,293-462.3
		c15.3-24.2,37.4-41.7,54.7-63.8l0.1-0.1c4.6-4,9.2-4.3,13.8,0l0.1,0.1c2.5,3.1,4.6,6.4,6.3,9.9c30.5,151.6,44.2,305.7,66,458.5
		c11.2,78.8,20.6,157.8,31.2,236.6c1.1,8,0.5,16.3,7.1,22.4C1659,1117.1,1666.9,1122.7,1666.8,1133.3"/>
	<path clip-path="url(#SVGID_6_)" fill="#F4931D" d="M354.4,848.5h13.9c48.8,138.6,106,273.8,160.1,410.4
		c37,93.6,74.4,187,112.3,280.2c10.6,26.1,3.2,34.3-23.8,29.5c-166.2-29.5-332.4-58.8-498.6-88.1c-4.8-3.2-7.8-7.6-8.7-13.4
		c0.3-48.9,24.8-90.7,41.4-134.5c51.4-136,105.5-270.9,156.4-407.1C318.1,896.7,334.7,871.8,354.4,848.5"/>
	<path clip-path="url(#SVGID_6_)" fill="#F4931D" d="M902.9,730.5c17.3,119.9,35.2,239.8,51.6,359.9c8.6,62.8,23.9,124.8,24.8,188.7
		c-99-70.1-198.1-140-296.9-210.4c-102.6-73.1-204.8-146.7-307.2-220c-2.3-17.1,10.7-18.1,21.9-20.4
		c166.3-34.9,332.6-69.7,498.9-104.6C902.4,721.8,904.6,724.2,902.9,730.5"/>
	<path clip-path="url(#SVGID_6_)" fill="#E0861A" d="M1145.9,591.6c4.6,122.7,9.3,245.4,13.9,368c-65.4-47.5-118.1-109-178.5-162
		c-25.9-22.7-49.9-47.6-78.4-67.2c-2.3-2.3-4.6-4.6-6.9-7c-24.5-73.7-63.6-140.8-95.3-211.2c-22.1-49-45.4-97.4-72.2-154.8
		c54,21.4,92.6,50.8,134.5,73.6C958.2,483,1048.6,543.4,1145.9,591.6"/>
	<path clip-path="url(#SVGID_6_)" fill="#E0861A" d="M118.2,1466.5c-17.5-6.6-20.7-23.4-27.7-37.8c-40.2-81.9-71.8-167.9-118-246.9
		c-2.3-6.9-4.7-13.9-7-20.8c43.7-49.5,99.4-84.8,150-126.1c71.2-58.1,143.4-115,215.4-172.1c7.1-5.7,15.6-9.6,23.5-14.3
		c-40.1,105.8-79.9,211.7-120.3,317.4C195.8,1266.2,156.9,1366.3,118.2,1466.5"/>
</g>
</svg>
